<svg width="600" height="68" viewBox="0 0 600 68" fill="none" xmlns="http://www.w3.org/2000/svg">
<path d="M16.1869 56C12.5149 56 9.70419 55.0707 7.75486 53.212C5.80553 51.3533 4.83086 48.7013 4.83086 45.256C4.83086 41.856 5.80553 39.2267 7.75486 37.368C9.70419 35.5093 12.5149 34.58 16.1869 34.58H42.2989V32.948C42.2989 30.1827 40.9389 28.8 38.2189 28.8H9.38686V20.98H40.8029C44.9282 20.98 47.8522 21.932 49.5749 23.836C51.2975 25.6947 52.1589 28.324 52.1589 31.724V56H16.1869ZM17.9549 48.18H42.2989V42.4H17.9549C17.0935 42.4 16.4135 42.672 15.9149 43.216C15.4615 43.7147 15.2349 44.3947 15.2349 45.256C15.2349 46.1173 15.4615 46.82 15.9149 47.364C16.4135 47.908 17.0935 48.18 17.9549 48.18ZM102.776 56V7.38H92.9158V56H102.776ZM101.076 56V48.18H77.6158C74.6692 48.18 72.4025 47.3867 70.8158 45.8C69.2745 44.168 68.5038 41.7427 68.5038 38.524C68.5038 35.26 69.2745 32.8347 70.8158 31.248C72.4025 29.616 74.6692 28.8 77.6158 28.8H100.396V20.98H77.6158C71.5412 20.98 66.8038 22.476 63.4038 25.468C60.0038 28.46 58.3038 32.812 58.3038 38.524C58.3038 44.1907 60.0038 48.52 63.4038 51.512C66.8038 54.504 71.5412 56 77.6158 56H101.076ZM119.581 56C115.909 56 113.099 55.0707 111.149 53.212C109.2 51.3533 108.225 48.7013 108.225 45.256C108.225 41.856 109.2 39.2267 111.149 37.368C113.099 35.5093 115.909 34.58 119.581 34.58H145.693V32.948C145.693 30.1827 144.333 28.8 141.613 28.8H112.781V20.98H144.197C148.323 20.98 151.247 21.932 152.969 23.836C154.692 25.6947 155.553 28.324 155.553 31.724V56H119.581ZM121.349 48.18H145.693V42.4H121.349C120.488 42.4 119.808 42.672 119.309 43.216C118.856 43.7147 118.629 44.3947 118.629 45.256C118.629 46.1173 118.856 46.82 119.309 47.364C119.808 47.908 120.488 48.18 121.349 48.18ZM163.058 56V7.38H172.918V56H163.058ZM164.758 56V48.18H188.218C191.165 48.18 193.409 47.3867 194.95 45.8C196.537 44.168 197.33 41.7427 197.33 38.524C197.33 35.26 196.537 32.8347 194.95 31.248C193.409 29.616 191.165 28.8 188.218 28.8H165.438V20.98H188.218C194.293 20.98 199.03 22.476 202.43 25.468C205.83 28.46 207.53 32.812 207.53 38.524C207.53 44.1907 205.83 48.52 202.43 51.512C199.03 54.504 194.293 56 188.218 56H164.758ZM231.612 56.34C225.537 56.34 220.8 54.844 217.4 51.852C214 48.8147 212.3 44.372 212.3 38.524C212.3 32.6307 214 28.188 217.4 25.196C220.8 22.1587 225.537 20.64 231.612 20.64H244.192C250.267 20.64 255.004 22.1587 258.404 25.196C261.804 28.188 263.504 32.6307 263.504 38.524C263.504 44.372 261.804 48.8147 258.404 51.852C255.004 54.844 250.267 56.34 244.192 56.34H231.612ZM231.612 48.52H244.192C247.139 48.52 249.383 47.704 250.924 46.072C252.511 44.44 253.304 41.924 253.304 38.524C253.304 35.0787 252.511 32.54 250.924 30.908C249.383 29.276 247.139 28.46 244.192 28.46H231.612C228.665 28.46 226.399 29.276 224.812 30.908C223.271 32.54 222.5 35.0787 222.5 38.524C222.5 41.924 223.271 44.44 224.812 46.072C226.399 47.704 228.665 48.52 231.612 48.52ZM289.193 56C285.249 56 282.347 55.0253 280.489 53.076C278.63 51.0813 277.701 48.4747 277.701 45.256V28.8H267.569V20.98H277.701V10.236H287.561V20.98H302.113V28.8H287.561V44.032C287.561 46.7973 288.921 48.18 291.641 48.18H304.017V56H289.193ZM331.159 56V47.16H368.559C370.282 47.16 371.574 46.684 372.435 45.732C373.296 44.7347 373.727 43.3747 373.727 41.652C373.727 39.884 373.296 38.5013 372.435 37.504C371.574 36.5067 370.282 36.008 368.559 36.008H337.551V27.236H368.491C371.982 27.236 373.727 25.4 373.727 21.728C373.727 18.1013 371.982 16.288 368.491 16.288H331.159V7.448H370.531C375.246 7.448 378.895 8.62666 381.479 10.984C384.108 13.296 385.423 16.5373 385.423 20.708C385.423 22.9747 384.992 25.128 384.131 27.168C383.27 29.1627 381.842 30.636 379.847 31.588C381.842 32.5853 383.27 34.0587 384.131 36.008C384.992 37.912 385.423 40.02 385.423 42.332C385.423 46.4573 384.108 49.7667 381.479 52.26C378.895 54.7533 375.246 56 370.531 56H331.159ZM417.954 56.34C409.205 56.34 402.382 54.2773 397.486 50.152C392.636 45.9813 390.21 39.816 390.21 31.656C390.21 23.5413 392.636 17.4213 397.486 13.296C402.382 9.12533 409.205 7.04 417.954 7.04H426.794C435.589 7.04 442.412 9.12533 447.262 13.296C452.113 17.4213 454.538 23.5413 454.538 31.656C454.538 39.816 452.113 45.9813 447.262 50.152C442.412 54.2773 435.589 56.34 426.794 56.34H417.954ZM401.294 31.656C401.294 36.5973 402.496 40.36 404.898 42.944L431.554 16.356C429.922 16.0387 428.086 15.88 426.046 15.88H418.702C412.99 15.88 408.661 17.1267 405.714 19.62C402.768 22.1133 401.294 26.1253 401.294 31.656ZM418.702 47.5H426.046C431.758 47.5 436.088 46.2533 439.034 43.76C441.981 41.2213 443.454 37.1867 443.454 31.656C443.454 26.7147 442.23 22.952 439.782 20.368L413.058 47.024C414.736 47.3413 416.617 47.5 418.702 47.5ZM487.747 56.34C478.998 56.34 472.175 54.2773 467.279 50.152C462.429 45.9813 460.003 39.816 460.003 31.656C460.003 23.5413 462.429 17.4213 467.279 13.296C472.175 9.12533 478.998 7.04 487.747 7.04H496.587C505.382 7.04 512.205 9.12533 517.055 13.296C521.906 17.4213 524.331 23.5413 524.331 31.656C524.331 39.816 521.906 45.9813 517.055 50.152C512.205 54.2773 505.382 56.34 496.587 56.34H487.747ZM471.087 31.656C471.087 36.5973 472.289 40.36 474.691 42.944L501.347 16.356C499.715 16.0387 497.879 15.88 495.839 15.88H488.495C482.783 15.88 478.454 17.1267 475.507 19.62C472.561 22.1133 471.087 26.1253 471.087 31.656ZM488.495 47.5H495.839C501.551 47.5 505.881 46.2533 508.827 43.76C511.774 41.2213 513.247 37.1867 513.247 31.656C513.247 26.7147 512.023 22.952 509.575 20.368L482.851 47.024C484.529 47.3413 486.41 47.5 488.495 47.5ZM557.54 56.34C548.791 56.34 541.968 54.2773 537.072 50.152C532.222 45.9813 529.796 39.816 529.796 31.656C529.796 23.5413 532.222 17.4213 537.072 13.296C541.968 9.12533 548.791 7.04 557.54 7.04H566.38C575.175 7.04 581.998 9.12533 586.848 13.296C591.699 17.4213 594.124 23.5413 594.124 31.656C594.124 39.816 591.699 45.9813 586.848 50.152C581.998 54.2773 575.175 56.34 566.38 56.34H557.54ZM540.88 31.656C540.88 36.5973 542.082 40.36 544.484 42.944L571.14 16.356C569.508 16.0387 567.672 15.88 565.632 15.88H558.288C552.576 15.88 548.247 17.1267 545.3 19.62C542.354 22.1133 540.88 26.1253 540.88 31.656ZM558.288 47.5H565.632C571.344 47.5 575.674 46.2533 578.62 43.76C581.567 41.2213 583.04 37.1867 583.04 31.656C583.04 26.7147 581.816 22.952 579.368 20.368L552.644 47.024C554.322 47.3413 556.203 47.5 558.288 47.5Z" fill="white"/>
</svg>
